G04*
G04 #@! TF.GenerationSoftware,Altium Limited,Altium Designer,20.0.2 (26)*
G04*
G04 Layer_Color=128*
%FSLAX44Y44*%
%MOMM*%
G71*
G01*
G75*
%ADD56C,0.0508*%
D56*
X1463250Y659421D02*
X1493250D01*
X1478250Y644421D02*
Y674421D01*
X938250Y659750D02*
X968250D01*
X953250Y644750D02*
Y674750D01*
X1460750Y932250D02*
X1490750D01*
X1475750Y917250D02*
Y947250D01*
X938250Y934750D02*
X968250D01*
X953250Y919750D02*
Y949750D01*
X1355000Y799750D02*
X1365000D01*
X1360000Y794750D02*
Y804750D01*
X1046250Y677250D02*
X1055250D01*
X1050750Y672750D02*
Y681750D01*
X1071650Y677250D02*
X1080650D01*
X1076150Y672750D02*
Y681750D01*
X1227500Y831000D02*
X1229500D01*
X1228500Y830000D02*
Y832000D01*
X1220500Y825000D02*
X1222500D01*
X1221500Y824000D02*
Y826000D01*
X1149500Y873500D02*
X1151500D01*
X1150500Y872500D02*
Y874500D01*
X1161000Y873500D02*
X1163000D01*
X1162000Y872500D02*
Y874500D01*
X1172500Y873500D02*
X1174500D01*
X1173500Y872500D02*
Y874500D01*
X1149500Y861500D02*
X1151500D01*
X1150500Y860500D02*
Y862500D01*
X1161000Y861500D02*
X1163000D01*
X1162000Y860500D02*
Y862500D01*
X1172500Y861500D02*
X1174500D01*
X1173500Y860500D02*
Y862500D01*
X1149750Y849750D02*
X1151750D01*
X1150750Y848750D02*
Y850750D01*
X1161000Y849750D02*
X1163000D01*
X1162000Y848750D02*
Y850750D01*
X1172750Y849750D02*
X1174750D01*
X1173750Y848750D02*
Y850750D01*
X1313250Y835000D02*
X1315250D01*
X1314250Y834000D02*
Y836000D01*
X1324750Y835000D02*
X1326750D01*
X1325750Y834000D02*
Y836000D01*
X1336250Y835000D02*
X1338250D01*
X1337250Y834000D02*
Y836000D01*
X1313250Y823000D02*
X1315250D01*
X1314250Y822000D02*
Y824000D01*
X1324750Y823000D02*
X1326750D01*
X1325750Y822000D02*
Y824000D01*
X1336250Y823000D02*
X1338250D01*
X1337250Y822000D02*
Y824000D01*
X1313500Y811250D02*
X1315500D01*
X1314500Y810250D02*
Y812250D01*
X1324750Y811250D02*
X1326750D01*
X1325750Y810250D02*
Y812250D01*
X1336500Y811250D02*
X1338500D01*
X1337500Y810250D02*
Y812250D01*
X1001250Y885000D02*
X1003250D01*
X1002250Y884000D02*
Y886000D01*
X1012750Y885000D02*
X1014750D01*
X1013750Y884000D02*
Y886000D01*
X1024250Y885000D02*
X1026250D01*
X1025250Y884000D02*
Y886000D01*
X1001250Y873000D02*
X1003250D01*
X1002250Y872000D02*
Y874000D01*
X1012750Y873000D02*
X1014750D01*
X1013750Y872000D02*
Y874000D01*
X1024250Y873000D02*
X1026250D01*
X1025250Y872000D02*
Y874000D01*
X1001500Y861250D02*
X1003500D01*
X1002500Y860250D02*
Y862250D01*
X1012750Y861250D02*
X1014750D01*
X1013750Y860250D02*
Y862250D01*
X1024500Y861250D02*
X1026500D01*
X1025500Y860250D02*
Y862250D01*
X1158000Y661500D02*
X1160000D01*
X1159000Y660500D02*
Y662500D01*
X1169500Y661500D02*
X1171500D01*
X1170500Y660500D02*
Y662500D01*
X1181000Y661500D02*
X1183000D01*
X1182000Y660500D02*
Y662500D01*
X1158000Y649500D02*
X1160000D01*
X1159000Y648500D02*
Y650500D01*
X1169500Y649500D02*
X1171500D01*
X1170500Y648500D02*
Y650500D01*
X1181000Y649500D02*
X1183000D01*
X1182000Y648500D02*
Y650500D01*
X1158250Y637750D02*
X1160250D01*
X1159250Y636750D02*
Y638750D01*
X1169500Y637750D02*
X1171500D01*
X1170500Y636750D02*
Y638750D01*
X1181250Y637750D02*
X1183250D01*
X1182250Y636750D02*
Y638750D01*
X980250Y740000D02*
X982250D01*
X981250Y739000D02*
Y741000D01*
X991750Y740000D02*
X993750D01*
X992750Y739000D02*
Y741000D01*
X1003250Y740000D02*
X1005250D01*
X1004250Y739000D02*
Y741000D01*
X980250Y728000D02*
X982250D01*
X981250Y727000D02*
Y729000D01*
X991750Y728000D02*
X993750D01*
X992750Y727000D02*
Y729000D01*
X1003250Y728000D02*
X1005250D01*
X1004250Y727000D02*
Y729000D01*
X980500Y716250D02*
X982500D01*
X981500Y715250D02*
Y717250D01*
X991750Y716250D02*
X993750D01*
X992750Y715250D02*
Y717250D01*
X1003500Y716250D02*
X1005500D01*
X1004500Y715250D02*
Y717250D01*
X1440500Y889250D02*
X1442500D01*
X1441500Y888250D02*
Y890250D01*
X1452000Y889250D02*
X1454000D01*
X1453000Y888250D02*
Y890250D01*
X1463500Y889250D02*
X1465500D01*
X1464500Y888250D02*
Y890250D01*
X1440500Y877250D02*
X1442500D01*
X1441500Y876250D02*
Y878250D01*
X1452000Y877250D02*
X1454000D01*
X1453000Y876250D02*
Y878250D01*
X1463500Y877250D02*
X1465500D01*
X1464500Y876250D02*
Y878250D01*
X1440750Y865500D02*
X1442750D01*
X1441750Y864500D02*
Y866500D01*
X1452000Y865500D02*
X1454000D01*
X1453000Y864500D02*
Y866500D01*
X1463750Y865500D02*
X1465750D01*
X1464750Y864500D02*
Y866500D01*
X1161000Y770250D02*
X1163000D01*
X1162000Y769250D02*
Y771250D01*
X1104750Y753500D02*
X1106750D01*
X1105750Y752500D02*
Y754500D01*
X1104750Y761250D02*
X1106750D01*
X1105750Y760250D02*
Y762250D01*
X1215000Y752750D02*
X1217000D01*
X1216000Y751750D02*
Y753750D01*
X1185750Y762750D02*
X1187750D01*
X1186750Y761750D02*
Y763750D01*
X1180000Y756500D02*
X1182000D01*
X1181000Y755500D02*
Y757500D01*
X1173000Y750500D02*
X1175000D01*
X1174000Y749500D02*
Y751500D01*
X1170750Y819750D02*
X1172750D01*
X1171750Y818750D02*
Y820750D01*
X1161000Y819750D02*
X1163000D01*
X1162000Y818750D02*
Y820750D01*
X1126500Y840250D02*
X1128500D01*
X1127500Y839250D02*
Y841250D01*
X1116750Y840250D02*
X1118750D01*
X1117750Y839250D02*
Y841250D01*
X1105000Y840250D02*
X1107000D01*
X1106000Y839250D02*
Y841250D01*
X1094500Y840000D02*
X1096500D01*
X1095500Y839000D02*
Y841000D01*
X962750Y805750D02*
X964750D01*
X963750Y804750D02*
Y806750D01*
X953000Y805750D02*
X955000D01*
X954000Y804750D02*
Y806750D01*
X942500Y805500D02*
X944500D01*
X943500Y804500D02*
Y806500D01*
X932750Y805500D02*
X934750D01*
X933750Y804500D02*
Y806500D01*
X1092500Y916250D02*
X1094500D01*
X1093500Y915250D02*
Y917250D01*
X1082500Y916000D02*
X1084500D01*
X1083500Y915000D02*
Y917000D01*
X1073000Y916250D02*
X1075000D01*
X1074000Y915250D02*
Y917250D01*
X1063000Y916250D02*
X1065000D01*
X1064000Y915250D02*
Y917250D01*
X1385500Y786250D02*
X1387500D01*
X1386500Y785250D02*
Y787250D01*
X1390750Y786000D02*
X1392750D01*
X1391750Y785000D02*
Y787000D01*
X1391000Y791500D02*
X1393000D01*
X1392000Y790500D02*
Y792500D01*
X1385500Y791250D02*
X1387500D01*
X1386500Y790250D02*
Y792250D01*
X1385750Y719750D02*
X1387750D01*
X1386750Y718750D02*
Y720750D01*
X1386000Y741210D02*
X1388000D01*
X1387000Y740210D02*
Y742210D01*
X1420750Y695000D02*
X1422750D01*
X1421750Y694000D02*
Y696000D01*
X1420750Y703500D02*
X1422750D01*
X1421750Y702500D02*
Y704500D01*
X1026000Y672750D02*
X1028000D01*
X1027000Y671750D02*
Y673750D01*
X1026000Y680750D02*
X1028000D01*
X1027000Y679750D02*
Y681750D01*
X1297500Y719250D02*
X1299500D01*
X1298500Y718250D02*
Y720250D01*
X1297500Y726500D02*
X1299500D01*
X1298500Y725500D02*
Y727500D01*
X1365500Y676500D02*
X1367500D01*
X1366500Y675500D02*
Y677500D01*
X1353750Y676500D02*
X1355750D01*
X1354750Y675500D02*
Y677500D01*
X1342500Y676500D02*
X1344500D01*
X1343500Y675500D02*
Y677500D01*
X1365250Y688250D02*
X1367250D01*
X1366250Y687250D02*
Y689250D01*
X1353750Y688250D02*
X1355750D01*
X1354750Y687250D02*
Y689250D01*
X1342250Y688250D02*
X1344250D01*
X1343250Y687250D02*
Y689250D01*
X1365250Y700250D02*
X1367250D01*
X1366250Y699250D02*
Y701250D01*
X1353750Y700250D02*
X1355750D01*
X1354750Y699250D02*
Y701250D01*
X1342250Y700250D02*
X1344250D01*
X1343250Y699250D02*
Y701250D01*
X1261124Y895480D02*
X1263124D01*
X1262124Y894480D02*
Y896480D01*
X1260874Y902730D02*
X1262874D01*
X1261874Y901730D02*
Y903730D01*
X1260874Y909980D02*
X1262874D01*
X1261874Y908980D02*
Y910980D01*
X1260874Y916980D02*
X1262874D01*
X1261874Y915980D02*
Y917980D01*
X1298250Y780000D02*
X1300250D01*
X1299250Y779000D02*
Y781000D01*
X1298250Y787500D02*
X1300250D01*
X1299250Y786500D02*
Y788500D01*
X1298250Y795500D02*
X1300250D01*
X1299250Y794500D02*
Y796500D01*
X1298250Y802750D02*
X1300250D01*
X1299250Y801750D02*
Y803750D01*
X1340750Y756250D02*
X1342750D01*
X1341750Y755250D02*
Y757250D01*
X1334000Y756250D02*
X1336000D01*
X1335000Y755250D02*
Y757250D01*
X1434750Y651500D02*
X1436750D01*
X1435750Y650500D02*
Y652500D01*
X1434793Y658122D02*
X1436793D01*
X1435793Y657122D02*
Y659122D01*
X1320250Y780250D02*
X1322250D01*
X1321250Y779250D02*
Y781250D01*
X1311500Y780250D02*
X1313500D01*
X1312500Y779250D02*
Y781250D01*
X1364750Y932250D02*
X1368750D01*
X1366750Y930250D02*
Y934250D01*
X1364750Y945250D02*
X1368750D01*
X1366750Y943250D02*
Y947250D01*
X1400750Y932250D02*
X1404750D01*
X1402750Y930250D02*
Y934250D01*
X1400750Y946250D02*
X1404750D01*
X1402750Y944250D02*
Y948250D01*
X1486750Y732250D02*
X1490750D01*
X1488750Y730250D02*
Y734250D01*
X1486750Y743250D02*
X1490750D01*
X1488750Y741250D02*
Y745250D01*
X1486750Y754250D02*
X1490750D01*
X1488750Y752250D02*
Y756250D01*
M02*
